<?xml version="1.0" encoding="UTF-8"?>
<svg version="1.1" xmlns="http://www.w3.org/2000/svg" width="2048" height="2048">
<path d="M0 0 C5.29824819 0.19623141 8.4212234 3.47081306 12.25 6.75 C13.68174059 7.94623192 15.11539554 9.14017565 16.55078125 10.33203125 C17.28635254 10.94385254 18.02192383 11.55567383 18.77978516 12.18603516 C22.26152819 15.03069655 25.84691176 17.73248472 29.4375 20.4375 C36.06754784 25.45345416 42.50857462 30.66220318 48.90161133 35.97583008 C54.09646276 40.28429907 59.39133215 44.42540964 64.76171875 48.51171875 C68.3654682 51.26413643 71.90240779 54.09774671 75.4375 56.9375 C80.29339122 60.83727676 85.16250276 64.71824631 90.0625 68.5625 C90.63750244 69.01375244 91.21250488 69.46500488 91.80493164 69.92993164 C94.6761367 72.18164366 97.55007211 74.42982535 100.42578125 76.67578125 C106.69073531 81.57538778 112.90247023 86.53142927 119.0625 91.5625 C123.84392621 95.4667889 128.65423148 99.31875117 133.5625 103.0625 C138.88426119 107.12280668 144.12278354 111.27552771 149.34179688 115.46679688 C153.56376321 118.85565166 157.80309842 122.22082052 162.0625 125.5625 C162.63750244 126.01375244 163.21250488 126.46500488 163.80493164 126.92993164 C166.6761367 129.18164366 169.55007211 131.42982535 172.42578125 133.67578125 C178.69073531 138.57538778 184.90247023 143.53142927 191.0625 148.5625 C195.84392621 152.4667889 200.65423148 156.31875117 205.5625 160.0625 C210.88426119 164.12280668 216.12278354 168.27552771 221.34179688 172.46679688 C225.56376321 175.85565166 229.80309842 179.22082052 234.0625 182.5625 C234.63750244 183.01375244 235.21250488 183.46500488 235.80493164 183.92993164 C238.6761367 186.18164366 241.55007211 188.42982535 244.42578125 190.67578125 C250.69073531 195.57538778 256.90247023 200.53142927 263.0625 205.5625 C267.84392621 209.4667889 272.65423148 213.31875117 277.5625 217.0625 C282.88426119 221.12280668 288.12278354 225.27552771 293.34179688 229.46679688 C297.56376321 232.85565166 301.80309842 236.22082052 306.0625 239.5625 C306.63750244 240.01375244 307.21250488 240.46500488 307.80493164 240.92993164 C310.6761367 243.18164366 313.55007211 245.42982535 316.42578125 247.67578125 C322.69073531 252.57538778 328.90247023 257.53142927 335.0625 262.5625 C339.84392621 266.4667889 344.65423148 270.31875117 349.5625 274.0625 C354.88426119 278.12280668 360.12278354 282.27552771 365.34179688 286.46679688 C369.56376321 289.85565166 373.80309842 293.22082052 378.0625 296.5625 C378.63750244 297.01375244 379.21250488 297.46500488 379.80493164 297.92993164 C382.6761367 300.18164366 385.55007211 302.42982535 388.42578125 304.67578125 C394.69073531 309.57538778 400.90247023 314.53142927 407.0625 319.5625 C411.84392621 323.4667889 416.65423148 327.31875117 421.5625 331.0625 C426.88426119 335.12280668 432.12278354 339.27552771 437.34179688 343.46679688 C441.56376321 346.85565166 445.80309842 350.22082052 450.0625 353.5625 C450.63750244 354.01375244 451.21250488 354.46500488 451.80493164 354.92993164 C454.6761367 357.18164366 457.55007211 359.42982535 460.42578125 361.67578125 C466.69073531 366.57538778 472.90247023 371.53142927 479.0625 376.5625 C483.84392621 380.4667889 488.65423148 384.31875117 493.5625 388.0625 C498.88426119 392.12280668 504.12278354 396.27552771 509.34179688 400.46679688 C513.56376321 403.85565166 517.80309842 407.22082052 522.0625 410.5625 C522.63750244 411.01375244 523.21250488 411.46500488 523.80493164 411.92993164 C526.6761367 414.18164366 529.55007211 416.42982535 532.42578125 418.67578125 C538.69073531 423.57538778 544.90247023 428.53142927 551.0625 433.5625 C555.84392621 437.4667889 560.65423148 441.31875117 565.5625 445.0625 C570.88426119 449.12280668 576.12278354 453.27552771 581.34179688 457.46679688 C585.56376321 460.85565166 589.80309842 464.22082052 594.0625 467.5625 C594.63750244 468.01375244 595.21250488 468.46500488 595.80493164 468.92993164 C598.6761367 471.18164366 601.55007211 473.42982535 604.42578125 475.67578125 C610.69073531 480.57538778 616.90247023 485.53142927 623.0625 490.5625 C627.84392621 494.4667889 632.65423148 498.31875117 637.5625 502.0625 C642.88426119 506.12280668 648.12278354 510.27552771 653.34179688 514.46679688 C657.56376321 517.85565166 661.80309842 521.22082052 666.0625 524.5625 C666.92500366 525.23937866 666.92500366 525.23937866 667.80493164 525.92993164 C670.6761367 528.18164366 673.55007211 530.42982535 676.42578125 532.67578125 C682.69073531 537.57538778 688.90247023 542.53142927 695.0625 547.5625 C699.84392621 551.4667889 704.65423148 555.31875117 709.5625 559.0625 C714.88426119 563.12280668 720.12278354 567.27552771 725.34179688 571.46679688 C729.56376321 574.85565166 733.80309842 578.22082052 738.0625 581.5625 C738.92500366 582.23937866 738.92500366 582.23937866 739.80493164 582.92993164 C742.6761367 585.18164366 745.55007211 587.42982535 748.42578125 589.67578125 C754.69073531 594.57538778 760.90247023 599.53142927 767.0625 604.5625 C771.84392621 608.4667889 776.65423148 612.31875117 781.5625 616.0625 C786.88426119 620.12280668 792.12278354 624.27552771 797.34179688 628.46679688 C801.56376321 631.85565166 805.80309842 635.22082052 810.0625 638.5625 C810.92500366 639.23937866 810.92500366 639.23937866 811.80493164 639.92993164 C814.6761367 642.18164366 817.55007211 644.42982535 820.42578125 646.67578125 C826.69073531 651.57538778 832.90247023 656.53142927 839.0625 661.5625 C843.84392621 665.4667889 848.65423148 669.31875117 853.5625 673.0625 C858.88426119 677.12280668 864.12278354 681.27552771 869.34179688 685.46679688 C873.56376321 688.85565166 877.80309842 692.22082052 882.0625 695.5625 C882.92500366 696.23937866 882.92500366 696.23937866 883.80493164 696.92993164 C886.6761367 699.18164366 889.55007211 701.42982535 892.42578125 703.67578125 C898.69073531 708.57538778 904.90247023 713.53142927 911.0625 718.5625 C915.84392621 722.4667889 920.65423148 726.31875117 925.5625 730.0625 C930.88426119 734.12280668 936.12278354 738.27552771 941.34179688 742.46679688 C945.56376321 745.85565166 949.80309842 749.22082052 954.0625 752.5625 C954.92500366 753.23937866 954.92500366 753.23937866 955.80493164 753.92993164 C958.6761367 756.18164366 961.55007211 758.42982535 964.42578125 760.67578125 C970.69073531 765.57538778 976.90247023 770.53142927 983.0625 775.5625 C988.8644492 780.30010022 994.74206163 784.91292555 1000.69921875 789.453125 C1005.09899451 792.82499092 1009.40771377 796.3118648 1013.71313477 799.80297852 C1017.70817737 803.02609578 1021.79849627 806.05035096 1026 809 C1025.17390838 813.10382717 1023.76951087 814.35034998 1020.4375 816.9375 C1019.44621094 817.71996094 1018.45492188 818.50242187 1017.43359375 819.30859375 C1016.88558105 819.73640137 1016.33756836 820.16420898 1015.77294922 820.60498047 C1012.4815472 823.1947727 1009.24591444 825.85360293 1006 828.5 C1004.61475865 829.62521587 1003.22934469 830.75021927 1001.84375 831.875 C998.72370813 834.41003402 995.60970546 836.9522895 992.5 839.5 C984.65310335 845.92765227 976.77222638 852.3135849 968.89746094 858.70703125 C961.5567932 864.6672561 954.22061966 870.63250438 946.90625 876.625 C942.57954205 880.16080435 938.24026221 883.68109065 933.90234375 887.203125 C930.09554653 890.29479333 926.29352888 893.39204863 922.5 896.5 C914.65310335 902.92765227 906.77222638 909.3135849 898.89746094 915.70703125 C889.18736387 923.58956541 889.18736387 923.58956541 879.5 931.5 C871.65310335 937.92765227 863.77222638 944.3135849 855.89746094 950.70703125 C848.5567932 956.6672561 841.22061966 962.63250438 833.90625 968.625 C829.57954205 972.16080435 825.24026221 975.68109065 820.90234375 979.203125 C817.09554653 982.29479333 813.29352888 985.39204863 809.5 988.5 C801.65310335 994.92765227 793.77222638 1001.3135849 785.89746094 1007.70703125 C778.5567932 1013.6672561 771.22061966 1019.63250438 763.90625 1025.625 C759.57954205 1029.16080435 755.24026221 1032.68109065 750.90234375 1036.203125 C747.09554653 1039.29479333 743.29352888 1042.39204863 739.5 1045.5 C731.65310335 1051.92765227 723.77222638 1058.3135849 715.89746094 1064.70703125 C708.5567932 1070.6672561 701.22061966 1076.63250438 693.90625 1082.625 C689.57954205 1086.16080435 685.24026221 1089.68109065 680.90234375 1093.203125 C677.09554653 1096.29479333 673.29352888 1099.39204863 669.5 1102.5 C661.65310335 1108.92765227 653.77222638 1115.3135849 645.89746094 1121.70703125 C638.5567932 1127.6672561 631.22061966 1133.63250438 623.90625 1139.625 C619.57954205 1143.16080435 615.24026221 1146.68109065 610.90234375 1150.203125 C607.09554653 1153.29479333 603.29352888 1156.39204863 599.5 1159.5 C591.65310335 1165.92765227 583.77222638 1172.3135849 575.89746094 1178.70703125 C571.86892135 1181.97798734 567.84174984 1185.25061429 563.81591797 1188.52490234 C562.1096651 1189.91091738 560.40088527 1191.2937488 558.69140625 1192.67578125 C557.72074219 1193.46339844 556.75007813 1194.25101563 555.75 1195.0625 C554.91984375 1195.73410156 554.0896875 1196.40570312 553.234375 1197.09765625 C551.03759831 1198.96798885 549.0276768 1200.94970476 547 1203 C547.34144043 1203.79245117 547.68288086 1204.58490234 548.03466797 1205.40136719 C580.63900489 1281.35800336 599.27159271 1361.03158809 557.8359375 1673.15234375 C535.43721665 1728.7540898 504.69555794 1780.43489902 467 1827 C466.28070312 1827.89460938 465.56140625 1828.78921875 464.8203125 1829.7109375 C460.46907604 1835.08599431 456.00217085 1840.31371733 451.3359375 1845.41796875 C449.42268302 1847.53278683 447.54283815 1849.66836508 445.671875 1851.8203125 C442.15151072 1855.85172779 438.53908458 1859.78664569 434.875 1863.6875 C434.22974365 1864.37448975 433.5844873 1865.06147949 432.91967773 1865.76928711 C424.97396446 1874.19172372 416.98243193 1882.63845776 408.14453125 1890.13671875 C405.83810608 1892.14066193 403.60759057 1894.21269072 401.37548828 1896.29858398 C395.12015199 1902.14045648 388.69395793 1907.6609853 382 1913 C380.88208806 1913.9092663 379.7649394 1914.8194716 378.6484375 1915.73046875 C348.88135961 1939.92890322 316.70886915 1960.74280936 283 1979 C282.22172852 1979.42603516 281.44345703 1979.85207031 280.64160156 1980.29101562 C256.04090784 1993.72042789 230.36902358 2004.56527678 204 2014 C202.81921875 2014.4237793 201.6384375 2014.84755859 200.421875 2015.28417969 C161.65341804 2029.04994456 121.65903971 2038.18719421 80.9375 2043.8125 C80.22818329 2043.91204987 79.51886658 2044.01159973 78.78805542 2044.11416626 C54.17804396 2047.52018121 29.52328339 2048.38136884 4.71387863 2048.31805801 C2.46298908 2048.31240708 0.21210709 2048.30959342 -2.03878784 2048.30697632 C-23.82669984 2048.27015972 -45.36670149 2047.81397601 -67 2045 C-68.41524673 2044.82570058 -69.83061576 2044.65239177 -71.24609375 2044.47998047 C-147.25687298 2035.13098472 -220.99543746 2011.41626134 -373.24267578 1916.453125 C-375.76933367 1914.36384079 -378.32467907 1912.31028732 -380.875 1910.25 C-385.2640461 1906.65716766 -389.49480786 1902.91693674 -393.6875 1899.09765625 C-395.66384372 1897.30492554 -397.6645673 1895.55204773 -399.6875 1893.8125 C-412.7748718 1882.3874355 -425.88316544 1870.40864495 -437.13671875 1857.14453125 C-439.14058616 1854.83819329 -441.21253719 1852.6077611 -443.29833984 1850.37573242 C-448.26438964 1845.0582604 -453.05076643 1839.66339123 -457.60546875 1833.984375 C-459.38240685 1831.76972458 -461.17495802 1829.57507619 -462.98828125 1827.390625 C-471.11172416 1817.56950704 -478.66000831 1807.41693209 -486 1797 C-486.41733398 1796.4112207 -486.83466797 1795.82244141 -487.26464844 1795.21582031 C-538.17146794 1723.31473828 -572.74357528 1640.08799717 -595 1490 C-595.11181264 1488.489571 -595.22378537 1486.97915383 -595.3359375 1485.46875 C-600.63696303 1407.23820634 -588.67545292 1327.40076752 -550 1219 C-549.25219457 1217.1668337 -548.50477343 1215.33351057 -547.7578125 1213.5 C-546.18832171 1209.65966766 -544.60184857 1205.82694197 -543 1202 C-552.7573365 1193.94363416 -562.54008449 1185.92033492 -572.3671875 1177.94921875 C-575.41809697 1175.47420597 -578.46126153 1172.98995138 -581.5 1170.5 C-588.64854276 1164.64439247 -595.82606826 1158.82444621 -603 1153 C-611.04170892 1146.47101384 -619.08106785 1139.93960706 -627.09375 1133.375 C-630.72305284 1130.40911811 -634.36129332 1127.45433168 -638 1124.5 C-642.50644208 1120.84113827 -647.00976104 1117.17874999 -651.5 1113.5 C-658.64854276 1107.64439247 -665.82606826 1101.82444621 -673 1096 C-681.04170892 1089.47101384 -689.08106785 1082.93960706 -697.09375 1076.375 C-700.72305284 1073.40911811 -704.36129332 1070.45433168 -708 1067.5 C-712.50644208 1063.84113827 -717.00976104 1060.17874999 -721.5 1056.5 C-728.64854276 1050.64439247 -735.82606826 1044.82444621 -743 1039 C-751.04170892 1032.47101384 -759.08106785 1025.93960706 -767.09375 1019.375 C-770.72305284 1016.40911811 -774.36129332 1013.45433168 -778 1010.5 C-782.50644208 1006.84113827 -787.00976104 1003.17874999 -791.5 999.5 C-798.64854276 993.64439247 -805.82606826 987.82444621 -813 982 C-821.04170892 975.47101384 -829.08106785 968.93960706 -837.09375 962.375 C-840.72305284 959.40911811 -844.36129332 956.45433168 -848 953.5 C-852.50644208 949.84113827 -857.00976104 946.17874999 -861.5 942.5 C-868.64854276 936.64439247 -875.82606826 930.82444621 -883 925 C-891.04170892 918.47101384 -899.08106785 911.93960706 -907.09375 905.375 C-910.72305284 902.40911811 -914.36129332 899.45433168 -918 896.5 C-922.50644208 892.84113827 -927.00976104 889.17874999 -931.5 885.5 C-938.64854276 879.64439247 -945.82606826 873.82444621 -953 868 C-961.04818289 861.46575769 -969.09358329 854.92857452 -977.11328125 848.359375 C-982.69570578 843.79674385 -988.2958153 839.25584506 -993.89306641 834.71142578 C-996.00636266 832.99483172 -998.11857769 831.27691621 -1000.23046875 829.55859375 C-1000.91987549 828.9980127 -1001.60928223 828.43743164 -1002.31958008 827.85986328 C-1003.67575137 826.75643374 -1005.03107641 825.65196319 -1006.38549805 824.54638672 C-1009.30665644 822.16602108 -1012.23476852 819.80292649 -1015.2265625 817.51171875 C-1016.14179687 816.80660156 -1017.05703125 816.10148438 -1018 815.375 C-1018.78375 814.78460937 -1019.5675 814.19421875 -1020.375 813.5859375 C-1020.91125 813.06257812 -1021.4475 812.53921875 -1022 812 C-1022 811.01 -1022 810.02 -1022 809 C-1019.71875 806.9765625 -1019.71875 806.9765625 -1016.5 804.625 C-1015.30042381 803.73400076 -1014.10258509 802.84065882 -1012.90625 801.9453125 C-1012.26945313 801.4699707 -1011.63265625 800.99462891 -1010.9765625 800.50488281 C-1007.58262653 797.92086338 -1004.29624441 795.20676278 -1001 792.5 C-996.1991155 788.57283422 -991.37005123 784.69814115 -986.4375 780.9375 C-981.76317404 777.37116242 -977.14666279 773.74393535 -972.5625 770.0625 C-967.70654847 766.16279739 -962.83749818 762.28175443 -957.9375 758.4375 C-957.07499634 757.76062134 -957.07499634 757.76062134 -956.19506836 757.07006836 C-953.3238633 754.81835634 -950.44992789 752.57017465 -947.57421875 750.32421875 C-941.30926469 745.42461222 -935.09752977 740.46857073 -928.9375 735.4375 C-924.15607379 731.5332111 -919.34576852 727.68124883 -914.4375 723.9375 C-909.76317404 720.37116242 -905.14666279 716.74393535 -900.5625 713.0625 C-895.70654847 709.16279739 -890.83749818 705.28175443 -885.9375 701.4375 C-885.36249756 700.98624756 -884.78749512 700.53499512 -884.19506836 700.07006836 C-881.3238633 697.81835634 -878.44992789 695.57017465 -875.57421875 693.32421875 C-869.30926469 688.42461222 -863.09752977 683.46857073 -856.9375 678.4375 C-852.15607379 674.5332111 -847.34576852 670.68124883 -842.4375 666.9375 C-837.76317404 663.37116242 -833.14666279 659.74393535 -828.5625 656.0625 C-823.70654847 652.16279739 -818.83749818 648.28175443 -813.9375 644.4375 C-813.36249756 643.98624756 -812.78749512 643.53499512 -812.19506836 643.07006836 C-809.3238633 640.81835634 -806.44992789 638.57017465 -803.57421875 636.32421875 C-797.30926469 631.42461222 -791.09752977 626.46857073 -784.9375 621.4375 C-780.15607379 617.5332111 -775.34576852 613.68124883 -770.4375 609.9375 C-765.76317404 606.37116242 -761.14666279 602.74393535 -756.5625 599.0625 C-751.70654847 595.16279739 -746.83749818 591.28175443 -741.9375 587.4375 C-741.36249756 586.98624756 -740.78749512 586.53499512 -740.19506836 586.07006836 C-737.3238633 583.81835634 -734.44992789 581.57017465 -731.57421875 579.32421875 C-725.30926469 574.42461222 -719.09752977 569.46857073 -712.9375 564.4375 C-708.15607379 560.5332111 -703.34576852 556.68124883 -698.4375 552.9375 C-693.76317404 549.37116242 -689.14666279 545.74393535 -684.5625 542.0625 C-679.70654847 538.16279739 -674.83749818 534.28175443 -669.9375 530.4375 C-669.36249756 529.98624756 -668.78749512 529.53499512 -668.19506836 529.07006836 C-665.3238633 526.81835634 -662.44992789 524.57017465 -659.57421875 522.32421875 C-653.30926469 517.42461222 -647.09752977 512.46857073 -640.9375 507.4375 C-636.15607379 503.5332111 -631.34576852 499.68124883 -626.4375 495.9375 C-621.76317404 492.37116242 -617.14666279 488.74393535 -612.5625 485.0625 C-607.70654847 481.16279739 -602.83749818 477.28175443 -597.9375 473.4375 C-597.36249756 472.98624756 -596.78749512 472.53499512 -596.19506836 472.07006836 C-593.3238633 469.81835634 -590.44992789 467.57017465 -587.57421875 465.32421875 C-581.30926469 460.42461222 -575.09752977 455.46857073 -568.9375 450.4375 C-564.15607379 446.5332111 -559.34576852 442.68124883 -554.4375 438.9375 C-549.76317404 435.37116242 -545.14666279 431.74393535 -540.5625 428.0625 C-535.70654847 424.16279739 -530.83749818 420.28175443 -525.9375 416.4375 C-525.36249756 415.98624756 -524.78749512 415.53499512 -524.19506836 415.07006836 C-521.3238633 412.81835634 -518.44992789 410.57017465 -515.57421875 408.32421875 C-509.30926469 403.42461222 -503.09752977 398.46857073 -496.9375 393.4375 C-492.15607379 389.5332111 -487.34576852 385.68124883 -482.4375 381.9375 C-477.76317404 378.37116242 -473.14666279 374.74393535 -468.5625 371.0625 C-463.70654847 367.16279739 -458.83749818 363.28175443 -453.9375 359.4375 C-453.36249756 358.98624756 -452.78749512 358.53499512 -452.19506836 358.07006836 C-449.3238633 355.81835634 -446.44992789 353.57017465 -443.57421875 351.32421875 C-437.30926469 346.42461222 -431.09752977 341.46857073 -424.9375 336.4375 C-420.15607379 332.5332111 -415.34576852 328.68124883 -410.4375 324.9375 C-405.76317404 321.37116242 -401.14666279 317.74393535 -396.5625 314.0625 C-391.70654847 310.16279739 -386.83749818 306.28175443 -381.9375 302.4375 C-381.36249756 301.98624756 -380.78749512 301.53499512 -380.19506836 301.07006836 C-377.3238633 298.81835634 -374.44992789 296.57017465 -371.57421875 294.32421875 C-365.30926469 289.42461222 -359.09752977 284.46857073 -352.9375 279.4375 C-348.15607379 275.5332111 -343.34576852 271.68124883 -338.4375 267.9375 C-333.76317404 264.37116242 -329.14666279 260.74393535 -324.5625 257.0625 C-319.70654847 253.16279739 -314.83749818 249.28175443 -309.9375 245.4375 C-309.36249756 244.98624756 -308.78749512 244.53499512 -308.19506836 244.07006836 C-305.3238633 241.81835634 -302.44992789 239.57017465 -299.57421875 237.32421875 C-293.30926469 232.42461222 -287.09752977 227.46857073 -280.9375 222.4375 C-276.15607379 218.5332111 -271.34576852 214.68124883 -266.4375 210.9375 C-261.76317404 207.37116242 -257.14666279 203.74393535 -252.5625 200.0625 C-247.70654847 196.16279739 -242.83749818 192.28175443 -237.9375 188.4375 C-237.36249756 187.98624756 -236.78749512 187.53499512 -236.19506836 187.07006836 C-233.3238633 184.81835634 -230.44992789 182.57017465 -227.57421875 180.32421875 C-221.30926469 175.42461222 -215.09752977 170.46857073 -208.9375 165.4375 C-204.15607379 161.5332111 -199.34576852 157.68124883 -194.4375 153.9375 C-189.76317404 150.37116242 -185.14666279 146.74393535 -180.5625 143.0625 C-175.70654847 139.16279739 -170.83749818 135.28175443 -165.9375 131.4375 C-165.36249756 130.98624756 -164.78749512 130.53499512 -164.19506836 130.07006836 C-161.3238633 127.81835634 -158.44992789 125.57017465 -155.57421875 123.32421875 C-149.30926469 118.42461222 -143.09752977 113.46857073 -136.9375 108.4375 C-132.15607379 104.5332111 -127.34576852 100.68124883 -122.4375 96.9375 C-117.76317404 93.37116242 -113.14666279 89.74393535 -108.5625 86.0625 C-103.70654847 82.16279739 -98.83749818 78.28175443 -93.9375 74.4375 C-93.36249756 73.98624756 -92.78749512 73.53499512 -92.19506836 73.07006836 C-89.3238633 70.81835634 -86.44992789 68.57017465 -83.57421875 66.32421875 C-77.30926469 61.42461222 -71.09752977 56.46857073 -64.9375 51.4375 C-60.15607379 47.5332111 -55.34576852 43.68124883 -50.4375 39.9375 C-45.76317404 36.37116242 -41.14666279 32.74393535 -36.5625 29.0625 C-29.41539824 23.32282751 -22.21632254 17.65226136 -15 12 C-12.39515782 9.95919332 -9.79113407 7.91734763 -7.1875 5.875 C-6.27955688 5.16428345 -6.27955688 5.16428345 -5.35327148 4.43920898 C-2.58523119 2.32525639 -2.58523119 2.32525639 0 0 Z " fill="#356AC3" transform="translate(1022,0)"/>
<path d="M0 0 C1.17208008 0.10183594 2.34416016 0.20367188 3.55175781 0.30859375 C22.20309795 1.94228778 40.59317919 4.58737688 59 8 C60.19061035 8.22026855 61.3812207 8.44053711 62.60791016 8.66748047 C145.85466303 24.35528377 225.06105088 58.9540101 329 135 C329.49918945 135.41427246 329.99837891 135.82854492 330.51269531 136.25537109 C338.38088202 142.7864013 345.96483977 149.56830108 353.43554688 156.54882812 C355.87126957 158.80818139 358.34642819 161.02387031 360.8125 163.25 C365.76048611 167.78346068 370.55832496 172.45142252 375.3125 177.1875 C375.97032471 177.84073242 376.62814941 178.49396484 377.3059082 179.16699219 C381.15548495 183.02872806 384.81386369 187.00431548 388.37670898 191.1315918 C390.65073774 193.74899923 393.01171097 196.27533535 395.375 198.8125 C399.61186417 203.40424681 403.65405883 208.10954114 407.5703125 212.98046875 C409.36164261 215.2066716 411.16738303 217.41488116 412.9921875 219.61328125 C444.26023474 257.40522025 470.56416368 300.33796759 490.9909668 344.86474609 C492.07929142 347.16779161 493.2359007 349.42888116 494.3984375 351.6953125 C525.69080267 414.0060187 540.07662765 486.94528948 545 556 C545.10586426 557.40596436 545.10586426 557.40596436 545.21386719 558.84033203 C551.39622489 643.87228364 536.60423217 730.38232888 413 972 C412.28070312 972.89460938 411.56140625 973.78921875 410.8203125 974.7109375 C406.46907604 980.08599431 402.00217085 985.31371733 397.3359375 990.41796875 C395.42268302 992.53278683 393.54283815 994.66836508 391.671875 996.8203125 C388.15151072 1000.85172779 384.53908458 1004.78664569 380.875 1008.6875 C380.22974365 1009.37448975 379.5844873 1010.06147949 378.91967773 1010.76928711 C370.97396446 1019.19172372 362.98243193 1027.63845776 354.14453125 1035.13671875 C351.83810608 1037.14066193 349.60759057 1039.21269072 347.37548828 1041.29858398 C341.12015199 1047.14045648 334.69395793 1052.6609853 328 1058 C326.88208806 1058.9092663 325.7649394 1059.8194716 324.6484375 1060.73046875 C294.88135961 1084.92890322 262.70886915 1105.74280936 229 1124 C228.22172852 1124.42603516 227.44345703 1124.85207031 226.64160156 1125.29101562 C202.04090784 1138.72042789 176.36902358 1149.56527678 150 1159 C148.22882813 1159.63566895 148.22882813 1159.63566895 146.421875 1160.28417969 C107.65341804 1174.04994456 67.65903971 1183.18719421 26.9375 1188.8125 C26.22818329 1188.91204987 25.51886658 1189.01159973 24.78805542 1189.11416626 C0.17804396 1192.52018121 -24.47671661 1193.38136884 -49.28612137 1193.31805801 C-51.53701092 1193.31240708 -53.78789291 1193.30959342 -56.03878784 1193.30697632 C-77.82669984 1193.27015972 -99.36670149 1192.81397601 -121 1190 C-122.41524673 1189.82570058 -123.83061576 1189.65239177 -125.24609375 1189.47998047 C-201.25687298 1180.13098472 -274.99543746 1156.41626134 -427.24267578 1061.453125 C-429.76933367 1059.36384079 -432.32467907 1057.31028732 -434.875 1055.25 C-439.2640461 1051.65716766 -443.49480786 1047.91693674 -447.6875 1044.09765625 C-449.66384372 1042.30492554 -451.6645673 1040.55204773 -453.6875 1038.8125 C-466.7748718 1027.3874355 -479.88316544 1015.40864495 -491.13671875 1002.14453125 C-493.14058616 999.83819329 -495.21253719 997.6077611 -497.29833984 995.37573242 C-502.26438964 990.0582604 -507.05076643 984.66339123 -511.60546875 978.984375 C-513.38240685 976.76972458 -515.17495802 974.57507619 -516.98828125 972.390625 C-525.11172416 962.56950704 -532.66000831 952.41693209 -540 942 C-540.41733398 941.4112207 -540.83466797 940.82244141 -541.26464844 940.21582031 C-592.17146794 868.31473828 -626.74357528 785.08799717 -649 635 C-649.11181264 633.489571 -649.22378537 631.97915383 -649.3359375 630.46875 C-654.63666752 552.24256734 -642.68073252 472.39972502 -604 364 C-603.66129883 363.18289551 -603.32259766 362.36579102 -602.97363281 361.52392578 C-599.13265355 352.32283388 -594.83086781 343.36289747 -590.27832031 334.49462891 C-589.34379887 332.67091994 -588.41413375 330.84472017 -587.48730469 329.01708984 C-576.46074753 307.28023101 -564.55128952 286.26472674 -551 266 C-550.56510254 265.34902344 -550.13020508 264.69804688 -549.68212891 264.02734375 C-532.52470018 238.46588755 -513.48104214 214.34351031 -492.55078125 191.76953125 C-490.32803659 189.35616836 -488.16122183 186.9056409 -486 184.4375 C-481.32119687 179.2237339 -476.38240738 174.27303784 -471.4375 169.3125 C-470.63376953 168.50417725 -469.83003906 167.69585449 -469.00195312 166.86303711 C-464.73083028 162.60286362 -460.38469978 158.4999752 -455.8112793 154.56616211 C-453.2087391 152.31581903 -450.70507963 149.9700462 -448.1875 147.625 C-442.64340173 142.50999794 -436.89094098 137.71275278 -431 133 C-429.88094186 132.08923981 -428.76248112 131.17774524 -427.64453125 130.265625 C-396.14971402 104.67017804 -361.91245274 82.85387329 -326 64 C-324.70908447 63.3205835 -324.70908447 63.3205835 -323.39208984 62.62744141 C-276.42223855 38.08805451 -225.78460217 20.94721872 -174 10 C-172.36998047 9.65461182 -172.36998047 9.65461182 -170.70703125 9.30224609 C-114.91113756 -2.27659116 -56.717561 -5.26094754 0 0 Z " fill="#A0C3FE" transform="translate(1076,855)"/>
<path d="M0 0 C0.66 0 1.32 0 2 0 C2 281.49 2 562.98 2 853 C-25.72 854.485 -25.72 854.485 -54 856 C-148.18778778 866.87732982 -237.01533365 895.28026588 -379 991 C-380.04018918 991.86609613 -381.08056449 992.73196873 -382.12109375 993.59765625 C-389.1039388 999.43136001 -395.87217146 1005.45939528 -402.53808594 1011.65136719 C-403.95512223 1012.95859974 -405.38750337 1014.24913739 -406.8203125 1015.5390625 C-412.9811878 1021.09560125 -418.93528077 1026.83126402 -424.8125 1032.6875 C-425.87053833 1033.7386499 -425.87053833 1033.7386499 -426.94995117 1034.81103516 C-430.93496169 1038.80779809 -434.73990555 1042.90626019 -438.42553711 1047.18041992 C-440.52406202 1049.6056496 -442.69889321 1051.95688272 -444.875 1054.3125 C-448.91279322 1058.74496474 -452.77307434 1063.27742177 -456.53515625 1067.9453125 C-458.34085175 1070.1831158 -460.15979312 1072.40481899 -461.99609375 1074.6171875 C-470.11595767 1084.43687384 -477.67176087 1094.57865769 -485 1105 C-485.46615723 1105.65935547 -485.93231445 1106.31871094 -486.41259766 1106.99804688 C-502.93043464 1130.41664267 -517.35109343 1154.96231189 -530.5625 1180.375 C-531.14644531 1181.49801514 -531.73039062 1182.62103027 -532.33203125 1183.77807617 C-535.42037444 1189.77301572 -538.35986037 1195.79363489 -541 1202 C-544.69969203 1200.71119914 -547.10898533 1199.25659021 -549.9375 1196.5625 C-553.74082138 1193.0682379 -557.6698874 1189.84588189 -561.75 1186.6875 C-566.42558742 1183.05890188 -571.00613191 1179.35139612 -575.5 1175.5 C-579.91563224 1171.71795589 -584.40918772 1168.06732224 -589 1164.5 C-594.23824648 1160.42895569 -599.33780962 1156.2265902 -604.38232422 1151.91845703 C-608.37920978 1148.50916874 -612.44717693 1145.20596542 -616.5625 1141.94140625 C-620.03091355 1139.17890379 -623.45430343 1136.36254718 -626.8828125 1133.55078125 C-630.57910602 1130.52224436 -634.28999827 1127.51171492 -638 1124.5 C-642.50647495 1120.84117903 -647.00976129 1117.17874979 -651.5 1113.5 C-658.64854276 1107.64439247 -665.82606826 1101.82444621 -673 1096 C-681.04170892 1089.47101384 -689.08106785 1082.93960706 -697.09375 1076.375 C-700.72305284 1073.40911811 -704.36129332 1070.45433168 -708 1067.5 C-712.50644208 1063.84113827 -717.00976104 1060.17874999 -721.5 1056.5 C-728.64854276 1050.64439247 -735.82606826 1044.82444621 -743 1039 C-751.04170892 1032.47101384 -759.08106785 1025.93960706 -767.09375 1019.375 C-770.72305284 1016.40911811 -774.36129332 1013.45433168 -778 1010.5 C-782.50644208 1006.84113827 -787.00976104 1003.17874999 -791.5 999.5 C-798.64854276 993.64439247 -805.82606826 987.82444621 -813 982 C-821.04170892 975.47101384 -829.08106785 968.93960706 -837.09375 962.375 C-840.72305284 959.40911811 -844.36129332 956.45433168 -848 953.5 C-852.50644208 949.84113827 -857.00976104 946.17874999 -861.5 942.5 C-868.64854276 936.64439247 -875.82606826 930.82444621 -883 925 C-891.04170892 918.47101384 -899.08106785 911.93960706 -907.09375 905.375 C-910.72305284 902.40911811 -914.36129332 899.45433168 -918 896.5 C-922.50644208 892.84113827 -927.00976104 889.17874999 -931.5 885.5 C-938.64854276 879.64439247 -945.82606826 873.82444621 -953 868 C-961.04818289 861.46575769 -969.09358329 854.92857452 -977.11328125 848.359375 C-982.69570578 843.79674385 -988.2958153 839.25584506 -993.89306641 834.71142578 C-996.00636266 832.99483172 -998.11857769 831.27691621 -1000.23046875 829.55859375 C-1000.91987549 828.9980127 -1001.60928223 828.43743164 -1002.31958008 827.85986328 C-1003.67575137 826.75643374 -1005.03107641 825.65196319 -1006.38549805 824.54638672 C-1009.30665644 822.16602108 -1012.23476852 819.80292649 -1015.2265625 817.51171875 C-1016.14179687 816.80660156 -1017.05703125 816.10148438 -1018 815.375 C-1018.78375 814.78460937 -1019.5675 814.19421875 -1020.375 813.5859375 C-1020.91125 813.06257812 -1021.4475 812.53921875 -1022 812 C-1022 811.01 -1022 810.02 -1022 809 C-1019.71875 806.9765625 -1019.71875 806.9765625 -1016.5 804.625 C-1015.30042381 803.73400076 -1014.10258509 802.84065882 -1012.90625 801.9453125 C-1012.26945313 801.4699707 -1011.63265625 800.99462891 -1010.9765625 800.50488281 C-1007.58262653 797.92086338 -1004.29624441 795.20676278 -1001 792.5 C-996.1991155 788.57283422 -991.37005123 784.69814115 -986.4375 780.9375 C-981.76317404 777.37116242 -977.14666279 773.74393535 -972.5625 770.0625 C-967.70654847 766.16279739 -962.83749818 762.28175443 -957.9375 758.4375 C-957.07499634 757.76062134 -957.07499634 757.76062134 -956.19506836 757.07006836 C-953.3238633 754.81835634 -950.44992789 752.57017465 -947.57421875 750.32421875 C-941.30926469 745.42461222 -935.09752977 740.46857073 -928.9375 735.4375 C-924.15607379 731.5332111 -919.34576852 727.68124883 -914.4375 723.9375 C-909.76317404 720.37116242 -905.14666279 716.74393535 -900.5625 713.0625 C-895.70654847 709.16279739 -890.83749818 705.28175443 -885.9375 701.4375 C-885.36249756 700.98624756 -884.78749512 700.53499512 -884.19506836 700.07006836 C-881.3238633 697.81835634 -878.44992789 695.57017465 -875.57421875 693.32421875 C-869.30926469 688.42461222 -863.09752977 683.46857073 -856.9375 678.4375 C-852.15607379 674.5332111 -847.34576852 670.68124883 -842.4375 666.9375 C-837.76317404 663.37116242 -833.14666279 659.74393535 -828.5625 656.0625 C-823.70654847 652.16279739 -818.83749818 648.28175443 -813.9375 644.4375 C-813.36249756 643.98624756 -812.78749512 643.53499512 -812.19506836 643.07006836 C-809.3238633 640.81835634 -806.44992789 638.57017465 -803.57421875 636.32421875 C-797.30926469 631.42461222 -791.09752977 626.46857073 -784.9375 621.4375 C-780.15607379 617.5332111 -775.34576852 613.68124883 -770.4375 609.9375 C-765.76317404 606.37116242 -761.14666279 602.74393535 -756.5625 599.0625 C-751.70654847 595.16279739 -746.83749818 591.28175443 -741.9375 587.4375 C-741.36249756 586.98624756 -740.78749512 586.53499512 -740.19506836 586.07006836 C-737.3238633 583.81835634 -734.44992789 581.57017465 -731.57421875 579.32421875 C-725.30926469 574.42461222 -719.09752977 569.46857073 -712.9375 564.4375 C-708.15607379 560.5332111 -703.34576852 556.68124883 -698.4375 552.9375 C-693.76317404 549.37116242 -689.14666279 545.74393535 -684.5625 542.0625 C-679.70654847 538.16279739 -674.83749818 534.28175443 -669.9375 530.4375 C-669.36249756 529.98624756 -668.78749512 529.53499512 -668.19506836 529.07006836 C-665.3238633 526.81835634 -662.44992789 524.57017465 -659.57421875 522.32421875 C-653.30926469 517.42461222 -647.09752977 512.46857073 -640.9375 507.4375 C-636.15607379 503.5332111 -631.34576852 499.68124883 -626.4375 495.9375 C-621.76317404 492.37116242 -617.14666279 488.74393535 -612.5625 485.0625 C-607.70654847 481.16279739 -602.83749818 477.28175443 -597.9375 473.4375 C-597.36249756 472.98624756 -596.78749512 472.53499512 -596.19506836 472.07006836 C-593.3238633 469.81835634 -590.44992789 467.57017465 -587.57421875 465.32421875 C-581.30926469 460.42461222 -575.09752977 455.46857073 -568.9375 450.4375 C-564.15607379 446.5332111 -559.34576852 442.68124883 -554.4375 438.9375 C-549.76317404 435.37116242 -545.14666279 431.74393535 -540.5625 428.0625 C-535.70654847 424.16279739 -530.83749818 420.28175443 -525.9375 416.4375 C-525.36249756 415.98624756 -524.78749512 415.53499512 -524.19506836 415.07006836 C-521.3238633 412.81835634 -518.44992789 410.57017465 -515.57421875 408.32421875 C-509.30926469 403.42461222 -503.09752977 398.46857073 -496.9375 393.4375 C-492.15607379 389.5332111 -487.34576852 385.68124883 -482.4375 381.9375 C-477.76317404 378.37116242 -473.14666279 374.74393535 -468.5625 371.0625 C-463.70654847 367.16279739 -458.83749818 363.28175443 -453.9375 359.4375 C-453.36249756 358.98624756 -452.78749512 358.53499512 -452.19506836 358.07006836 C-449.3238633 355.81835634 -446.44992789 353.57017465 -443.57421875 351.32421875 C-437.30926469 346.42461222 -431.09752977 341.46857073 -424.9375 336.4375 C-420.15607379 332.5332111 -415.34576852 328.68124883 -410.4375 324.9375 C-405.76317404 321.37116242 -401.14666279 317.74393535 -396.5625 314.0625 C-391.70654847 310.16279739 -386.83749818 306.28175443 -381.9375 302.4375 C-381.36249756 301.98624756 -380.78749512 301.53499512 -380.19506836 301.07006836 C-377.3238633 298.81835634 -374.44992789 296.57017465 -371.57421875 294.32421875 C-365.30926469 289.42461222 -359.09752977 284.46857073 -352.9375 279.4375 C-348.15607379 275.5332111 -343.34576852 271.68124883 -338.4375 267.9375 C-333.76317404 264.37116242 -329.14666279 260.74393535 -324.5625 257.0625 C-319.70654847 253.16279739 -314.83749818 249.28175443 -309.9375 245.4375 C-309.36249756 244.98624756 -308.78749512 244.53499512 -308.19506836 244.07006836 C-305.3238633 241.81835634 -302.44992789 239.57017465 -299.57421875 237.32421875 C-293.30926469 232.42461222 -287.09752977 227.46857073 -280.9375 222.4375 C-276.15607379 218.5332111 -271.34576852 214.68124883 -266.4375 210.9375 C-261.76317404 207.37116242 -257.14666279 203.74393535 -252.5625 200.0625 C-247.70654847 196.16279739 -242.83749818 192.28175443 -237.9375 188.4375 C-237.36249756 187.98624756 -236.78749512 187.53499512 -236.19506836 187.07006836 C-233.3238633 184.81835634 -230.44992789 182.57017465 -227.57421875 180.32421875 C-221.30926469 175.42461222 -215.09752977 170.46857073 -208.9375 165.4375 C-204.15607379 161.5332111 -199.34576852 157.68124883 -194.4375 153.9375 C-189.76317404 150.37116242 -185.14666279 146.74393535 -180.5625 143.0625 C-175.70654847 139.16279739 -170.83749818 135.28175443 -165.9375 131.4375 C-165.36249756 130.98624756 -164.78749512 130.53499512 -164.19506836 130.07006836 C-161.3238633 127.81835634 -158.44992789 125.57017465 -155.57421875 123.32421875 C-149.30926469 118.42461222 -143.09752977 113.46857073 -136.9375 108.4375 C-132.15607379 104.5332111 -127.34576852 100.68124883 -122.4375 96.9375 C-117.76317404 93.37116242 -113.14666279 89.74393535 -108.5625 86.0625 C-103.70654847 82.16279739 -98.83749818 78.28175443 -93.9375 74.4375 C-93.36249756 73.98624756 -92.78749512 73.53499512 -92.19506836 73.07006836 C-89.3238633 70.81835634 -86.44992789 68.57017465 -83.57421875 66.32421875 C-77.30926469 61.42461222 -71.09752977 56.46857073 -64.9375 51.4375 C-60.15607379 47.5332111 -55.34576852 43.68124883 -50.4375 39.9375 C-45.76317404 36.37116242 -41.14666279 32.74393535 -36.5625 29.0625 C-29.41539824 23.32282751 -22.21632254 17.65226136 -15 12 C-12.39515782 9.95919332 -9.79113407 7.91734763 -7.1875 5.875 C-6.27955688 5.16428345 -6.27955688 5.16428345 -5.35327148 4.43920898 C-2.58523119 2.32525639 -2.58523119 2.32525639 0 0 Z " fill="#4185F4" transform="translate(1022,0)"/>
<path d="M0 0 C1.17208008 0.10183594 2.34416016 0.20367188 3.55175781 0.30859375 C22.20309795 1.94228778 40.59317919 4.58737688 59 8 C60.19061035 8.22026855 61.3812207 8.44053711 62.60791016 8.66748047 C145.85466303 24.35528377 225.06105088 58.9540101 329 135 C329.49918945 135.41427246 329.99837891 135.82854492 330.51269531 136.25537109 C338.38088202 142.7864013 345.96483977 149.56830108 353.43554688 156.54882812 C355.87126957 158.80818139 358.34642819 161.02387031 360.8125 163.25 C365.76048611 167.78346068 370.55832496 172.45142252 375.3125 177.1875 C375.97032471 177.84073242 376.62814941 178.49396484 377.3059082 179.16699219 C381.15548495 183.02872806 384.81386369 187.00431548 388.37670898 191.1315918 C390.65073774 193.74899923 393.01171097 196.27533535 395.375 198.8125 C399.61186417 203.40424681 403.65405883 208.10954114 407.5703125 212.98046875 C409.36164261 215.2066716 411.16738303 217.41488116 412.9921875 219.61328125 C488 310.27102693 488 310.27102693 488 340 C131.6 340 -224.8 340 -592 340 C-590.525014 335.575042 -589.07917577 331.93564422 -586.98046875 327.84375 C-586.68572159 327.26816345 -586.39097443 326.6925769 -586.08729553 326.09954834 C-585.12651526 324.22996082 -584.15796605 322.36457654 -583.1875 320.5 C-582.85463989 319.85816772 -582.52177979 319.21633545 -582.17883301 318.55505371 C-572.76618795 300.43945161 -562.34820128 282.97020772 -551 266 C-550.56510254 265.34902344 -550.13020508 264.69804688 -549.68212891 264.02734375 C-532.52470018 238.46588755 -513.48104214 214.34351031 -492.55078125 191.76953125 C-490.32803659 189.35616836 -488.16122183 186.9056409 -486 184.4375 C-481.32119687 179.2237339 -476.38240738 174.27303784 -471.4375 169.3125 C-470.2319043 168.10001587 -470.2319043 168.10001587 -469.00195312 166.86303711 C-464.73083028 162.60286362 -460.38469978 158.4999752 -455.8112793 154.56616211 C-453.2087391 152.31581903 -450.70507963 149.9700462 -448.1875 147.625 C-442.64340173 142.50999794 -436.89094098 137.71275278 -431 133 C-429.88094186 132.08923981 -428.76248112 131.17774524 -427.64453125 130.265625 C-396.14971402 104.67017804 -361.91245274 82.85387329 -326 64 C-324.70908447 63.3205835 -324.70908447 63.3205835 -323.39208984 62.62744141 C-276.42223855 38.08805451 -225.78460217 20.94721872 -174 10 C-172.36998047 9.65461182 -172.36998047 9.65461182 -170.70703125 9.30224609 C-114.91113756 -2.27659116 -56.717561 -5.26094754 0 0 Z " fill="#76A7F9" transform="translate(1076,855)"/>
</svg>
